<svg width="29" height="16" viewBox="0 0 29 16" fill="none" xmlns="http://www.w3.org/2000/svg">
<rect x="0.499756" width="28" height="16" rx="3" fill="url(#paint0_linear_8730_31886)"/>
<path d="M24.1132 9.38678C23.3545 9.92483 22.4475 10.2141 21.5173 10.2147H17.9826L17.3403 12.2959H15.2417L16.5419 8.07554H22.3753C22.6667 8.07531 22.9504 7.9817 23.1847 7.80843C23.4304 7.63682 23.6109 7.38725 23.6969 7.10021C23.7458 6.98708 23.7641 6.86311 23.7502 6.74067C23.7362 6.61823 23.6903 6.5016 23.6172 6.40241C23.5354 6.31346 23.4346 6.2442 23.3222 6.19984C23.2099 6.15547 23.0889 6.13716 22.9685 6.14628H17.1351L19.1805 4.00716H23.4293C23.8162 3.97816 24.2046 4.03752 24.5652 4.18075C24.9257 4.32398 25.249 4.54733 25.5106 4.83391C25.751 5.15654 25.9036 5.53603 25.9535 5.9353C26.0033 6.33456 25.9487 6.73993 25.795 7.11178C25.5108 8.0414 24.9161 8.84531 24.1103 9.3891H24.1155L24.1132 9.38678ZM14.5508 4.00483H16.6495L14.0975 12.2953H11.9989L14.5513 4.00483H14.5508ZM14.5508 4.00483H10.8796L7.12519 7.57544V4.00483H3.99976V5.02294H5.04041V12.67L14.5508 4.00483Z" fill="url(#paint1_linear_8730_31886)"/>
<defs>
<linearGradient id="paint0_linear_8730_31886" x1="28.1662" y1="-2.5" x2="0.166162" y2="-2.5" gradientUnits="userSpaceOnUse">
<stop stop-color="#A28A72"/>
<stop offset="1" stop-color="#5D4833"/>
</linearGradient>
<linearGradient id="paint1_linear_8730_31886" x1="3.99976" y1="4" x2="25.9998" y2="10" gradientUnits="userSpaceOnUse">
<stop stop-color="#FEF8F4"/>
<stop offset="1" stop-color="#FEF4EC"/>
</linearGradient>
</defs>
</svg>
